<?xml version="1.0" standalone="no"?>
<!DOCTYPE svg PUBLIC "-//W3C//DTD SVG 20010904//EN"
 "http://www.w3.org/TR/2001/REC-SVG-20010904/DTD/svg10.dtd">
<svg version="1.0" xmlns="http://www.w3.org/2000/svg"
 width="1200.000000pt" height="1200.000000pt" viewBox="0 0 1200.000000 1200.000000"
 preserveAspectRatio="xMidYMid meet">

<g transform="translate(0.000000,1200.000000) scale(0.100000,-0.100000)"
fill="#000000" stroke="none">
<path d="M0 6000 l0 -6000 6000 0 6000 0 0 6000 0 6000 -6000 0 -6000 0 0
-6000z m9060 455 l0 -425 -60 0 -60 0 0 365 0 365 -365 0 -365 0 0 60 0 60
425 0 425 0 0 -425z m-1073 11 c3 -2 1 -24 -4 -48 l-9 -43 -85 3 c-136 6 -176
-28 -187 -155 l-5 -63 132 0 131 0 0 -50 0 -50 -130 0 -130 0 0 -295 0 -295
-55 0 -55 0 0 403 c0 430 3 461 50 527 45 63 150 93 279 78 35 -4 66 -10 68
-12z m-623 -58 c37 -52 8 -118 -51 -118 -48 0 -73 24 -73 68 0 48 24 72 71 72
28 0 42 -6 53 -22z m-3449 -19 c22 -6 59 -17 81 -26 l42 -15 -15 -47 -15 -47
-72 24 c-91 31 -227 28 -292 -5 -50 -27 -110 -92 -135 -147 -26 -59 -42 -171
-34 -246 15 -161 82 -266 192 -306 59 -20 217 -17 283 6 30 11 58 19 61 20 9
0 31 -79 24 -89 -10 -17 -108 -44 -184 -50 -175 -14 -299 24 -385 119 -81 91
-116 196 -116 350 0 222 103 386 283 450 60 21 217 26 282 9z m415 -409 l0
-400 210 0 210 0 0 -55 0 -55 -270 0 -270 0 0 455 0 455 60 0 60 0 0 -400z
m2360 0 l0 -400 210 0 210 0 0 -55 0 -55 -270 0 -270 0 0 455 0 455 60 0 60 0
0 -400z m-1322 161 l42 -12 0 -346 c0 -245 -4 -358 -12 -387 -19 -62 -91 -130
-158 -150 -67 -20 -233 -22 -305 -3 l-50 12 3 49 c1 27 3 51 5 52 1 1 27 -4
57 -12 30 -8 93 -14 140 -14 146 0 210 51 210 167 l0 51 -50 -19 c-63 -24
-169 -25 -235 -2 -106 36 -175 149 -177 287 -1 87 7 127 37 186 44 86 131 145
233 158 66 8 198 0 260 -17z m2002 -326 l0 -345 -60 0 -60 0 0 345 0 345 60 0
60 0 0 -345z m1137 320 c92 -46 132 -122 140 -262 l6 -93 -237 0 -236 0 6 -27
c33 -151 84 -193 235 -193 46 0 101 5 122 11 22 6 41 8 44 5 3 -3 9 -23 13
-46 l7 -40 -51 -15 c-53 -16 -201 -21 -252 -9 -49 12 -117 50 -151 86 -125
130 -111 419 25 538 56 50 109 68 203 69 61 1 84 -4 126 -24z m-2367 -720 l0
-365 365 0 365 0 0 -55 0 -55 -420 0 -420 0 0 420 0 420 55 0 55 0 0 -365z"/>
<path d="M5065 6044 c-76 -39 -110 -108 -110 -219 1 -83 30 -153 78 -187 46
-33 157 -38 221 -10 l46 21 0 199 c0 173 -2 201 -16 206 -34 13 -189 6 -219
-10z"/>
<path d="M8285 6051 c-16 -10 -38 -27 -47 -37 -22 -25 -48 -87 -48 -114 0 -19
6 -20 175 -20 l176 0 -7 38 c-9 56 -37 104 -74 130 -43 29 -131 31 -175 3z"/>
</g>
</svg>
